# xmcd
#
# Track frame offsets:
#	150
#	18870
#	43564
#	63067
#	86974
#	112711
#	131692
#	153462
#	180463
#	203231
#	225053
#
# Disc length: 3279 seconds
#
# Revision: 0
# Processed by: cddbd v1.5.1PL2 Copyright (c) Steve Scherf et al.
# Submitted via: dBpowerAMP V4.0
#
DISCID=7a0ccd0b
DTITLE=Dean Reichert - Misty's Joint
DYEAR=2005
DGENRE=Blues
TTITLE0=One Way
TTITLE1=Something I Said
TTITLE2=The Way You Look
TTITLE3=Cold Love
TTITLE4=Misty's Joint
TTITLE5=Movin'
TTITLE6=Let The Groove
TTITLE7=Bad Day
TTITLE8=Opportunity
TTITLE9=Body and Fender Man
TTITLE10=Just Won't Stop
EXTD=
EXTT0=
EXTT1=
EXTT2=
EXTT3=
EXTT4=
EXTT5=
EXTT6=
EXTT7=
EXTT8=
EXTT9=
EXTT10=
PLAYORDER=
